<svg id="visual" viewBox="0 0 1600 1000" width="1600" height="1000" xmlns="http://www.w3.org/2000/svg" xmlns:xlink="http://www.w3.org/1999/xlink" version="1.1"><rect x="0" y="0" width="1600" height="1000" fill="#69c5fa"></rect><path d="M0 718L229 598L457 597L686 619L914 730L1143 629L1371 672L1600 699L1600 1001L1371 1001L1143 1001L914 1001L686 1001L457 1001L229 1001L0 1001Z" fill="#468ea1"></path><path d="M0 800L229 665L457 766L686 743L914 753L1143 716L1371 761L1600 683L1600 1001L1371 1001L1143 1001L914 1001L686 1001L457 1001L229 1001L0 1001Z" fill="#3a8093"></path><path d="M0 845L229 823L457 819L686 848L914 757L1143 776L1371 760L1600 755L1600 1001L1371 1001L1143 1001L914 1001L686 1001L457 1001L229 1001L0 1001Z" fill="#2d7286"></path><path d="M0 810L229 806L457 887L686 829L914 859L1143 863L1371 840L1600 838L1600 1001L1371 1001L1143 1001L914 1001L686 1001L457 1001L229 1001L0 1001Z" fill="#206579"></path><path d="M0 949L229 886L457 880L686 943L914 911L1143 916L1371 918L1600 924L1600 1001L1371 1001L1143 1001L914 1001L686 1001L457 1001L229 1001L0 1001Z" fill="#11586c"></path></svg>