<svg id="visual" viewBox="0 0 2000 2000" width="2000" height="2000" xmlns="http://www.w3.org/2000/svg" xmlns:xlink="http://www.w3.org/1999/xlink" version="1.1"><path d="M0 153L145 153L145 161L291 161L291 161L436 161L436 153L582 153L582 121L727 121L727 73L873 73L873 81L1018 81L1018 57L1164 57L1164 81L1309 81L1309 169L1455 169L1455 89L2000 89L2000 113L2000 0L2000 0L1455 0L1455 0L1309 0L1309 0L1164 0L1164 0L1018 0L1018 0L873 0L873 0L727 0L727 0L582 0L582 0L436 0L436 0L291 0L291 0L145 0L145 0L0 0Z" fill="#69c5fa"></path><path d="M0 337L145 337L145 465L291 465L291 449L436 449L436 465L582 465L582 401L727 401L727 401L873 401L873 385L1018 385L1018 361L1164 361L1164 465L1309 465L1309 433L1455 433L1455 241L2000 241L2000 249L2000 111L2000 87L1455 87L1455 167L1309 167L1309 79L1164 79L1164 55L1018 55L1018 79L873 79L873 71L727 71L727 119L582 119L582 151L436 151L436 159L291 159L291 159L145 159L145 151L0 151Z" fill="#5cb8e3"></path><path d="M0 641L145 641L145 585L291 585L291 561L436 561L436 609L582 609L582 521L727 521L727 561L873 561L873 521L1018 521L1018 497L1164 497L1164 617L1309 617L1309 577L1455 577L1455 521L2000 521L2000 513L2000 247L2000 239L1455 239L1455 431L1309 431L1309 463L1164 463L1164 359L1018 359L1018 383L873 383L873 399L727 399L727 399L582 399L582 463L436 463L436 447L291 447L291 463L145 463L145 335L0 335Z" fill="#52aacc"></path><path d="M0 713L145 713L145 673L291 673L291 617L436 617L436 673L582 673L582 585L727 585L727 697L873 697L873 633L1018 633L1018 553L1164 553L1164 713L1309 713L1309 641L1455 641L1455 649L2000 649L2000 609L2000 511L2000 519L1455 519L1455 575L1309 575L1309 615L1164 615L1164 495L1018 495L1018 519L873 519L873 559L727 559L727 519L582 519L582 607L436 607L436 559L291 559L291 583L145 583L145 639L0 639Z" fill="#4b9cb6"></path><path d="M0 801L145 801L145 801L291 801L291 801L436 801L436 801L582 801L582 801L727 801L727 801L873 801L873 801L1018 801L1018 801L1164 801L1164 801L1309 801L1309 801L1455 801L1455 801L2000 801L2000 801L2000 607L2000 647L1455 647L1455 639L1309 639L1309 711L1164 711L1164 551L1018 551L1018 631L873 631L873 695L727 695L727 583L582 583L582 671L436 671L436 615L291 615L291 671L145 671L145 711L0 711Z" fill="#468ea1"></path></svg>  