<svg id="visual" viewBox="0 0 1600 800" width="1600" height="800" xmlns="http://www.w3.org/2000/svg" xmlns:xlink="http://www.w3.org/1999/xlink" version="1.1"><rect x="0" y="0" width="1600" height="800" fill="#FFDD79"></rect><path d="M0 462L26.7 487.7C53.3 513.3 106.7 564.7 160 581.3C213.3 598 266.7 580 320 583.7C373.3 587.3 426.7 612.7 480 601.7C533.3 590.7 586.7 543.3 640 539.7C693.3 536 746.7 576 800 595.2C853.3 614.3 906.7 612.7 960 593.7C1013.3 574.7 1066.7 538.3 1120 546.2C1173.3 554 1226.7 606 1280 618.5C1333.3 631 1386.7 604 1440 609.7C1493.3 615.3 1546.7 653.7 1573.3 672.8L1600 692L1600 801L1573.3 801C1546.7 801 1493.3 801 1440 801C1386.7 801 1333.3 801 1280 801C1226.7 801 1173.3 801 1120 801C1066.7 801 1013.3 801 960 801C906.7 801 853.3 801 800 801C746.7 801 693.3 801 640 801C586.7 801 533.3 801 480 801C426.7 801 373.3 801 320 801C266.7 801 213.3 801 160 801C106.7 801 53.3 801 26.7 801L0 801Z" fill="#d58b1d" stroke-linecap="round" stroke-linejoin="miter"></path></svg>