<svg id="visual" viewBox="0 0 1600 700" width="1600" height="700" xmlns="http://www.w3.org/2000/svg" xmlns:xlink="http://www.w3.org/1999/xlink" version="1.1"><rect x="0" y="0" width="1600" height="700" fill="#fff"></rect><path d="M0 286L26.7 317.5C53.3 349 106.7 412 160 432.3C213.3 452.7 266.7 430.3 320 434.7C373.3 439 426.7 470 480 456.7C533.3 443.3 586.7 385.7 640 381.3C693.3 377 746.7 426 800 449.5C853.3 473 906.7 471 960 447.7C1013.3 424.3 1066.7 379.7 1120 389.2C1173.3 398.7 1226.7 462.3 1280 477.7C1333.3 493 1386.7 460 1440 466.8C1493.3 473.7 1546.7 520.3 1573.3 543.7L1600 567L1600 701L1573.3 701C1546.7 701 1493.3 701 1440 701C1386.7 701 1333.3 701 1280 701C1226.7 701 1173.3 701 1120 701C1066.7 701 1013.3 701 960 701C906.7 701 853.3 701 800 701C746.7 701 693.3 701 640 701C586.7 701 533.3 701 480 701C426.7 701 373.3 701 320 701C266.7 701 213.3 701 160 701C106.7 701 53.3 701 26.7 701L0 701Z" fill="#d58b1d" stroke-linecap="round" stroke-linejoin="miter"></path></svg>