<svg id="visual" viewBox="0 0 1600 700" width="1600" height="700" xmlns="http://www.w3.org/2000/svg" xmlns:xlink="http://www.w3.org/1999/xlink" version="1.1"><rect x="0" y="0" width="1600" height="700" fill="#FFDD79"></rect><path d="M0 345L26.7 372C53.3 399 106.7 453 160 470.5C213.3 488 266.7 469 320 472.8C373.3 476.7 426.7 503.3 480 491.8C533.3 480.3 586.7 430.7 640 426.8C693.3 423 746.7 465 800 485.2C853.3 505.3 906.7 503.7 960 483.7C1013.3 463.7 1066.7 425.3 1120 433.5C1173.3 441.7 1226.7 496.3 1280 509.5C1333.3 522.7 1386.7 494.3 1440 500.2C1493.3 506 1546.7 546 1573.3 566L1600 586L1600 701L1573.3 701C1546.7 701 1493.3 701 1440 701C1386.7 701 1333.3 701 1280 701C1226.7 701 1173.3 701 1120 701C1066.7 701 1013.3 701 960 701C906.7 701 853.3 701 800 701C746.7 701 693.3 701 640 701C586.7 701 533.3 701 480 701C426.7 701 373.3 701 320 701C266.7 701 213.3 701 160 701C106.7 701 53.3 701 26.7 701L0 701Z" fill="#d58b1d" stroke-linecap="round" stroke-linejoin="miter"></path></svg>