<svg id="visual" viewBox="0 0 1600 700" width="1600" height="700" xmlns="http://www.w3.org/2000/svg" xmlns:xlink="http://www.w3.org/1999/xlink" version="1.1"><rect x="0" y="0" width="1600" height="700" fill="#FFDD79"></rect><path d="M0 463L26.7 481C53.3 499 106.7 535 160 546.7C213.3 558.3 266.7 545.7 320 548.2C373.3 550.7 426.7 568.3 480 560.7C533.3 553 586.7 520 640 517.5C693.3 515 746.7 543 800 556.5C853.3 570 906.7 569 960 555.7C1013.3 542.3 1066.7 516.7 1120 522C1173.3 527.3 1226.7 563.7 1280 572.5C1333.3 581.3 1386.7 562.7 1440 566.7C1493.3 570.7 1546.7 597.3 1573.3 610.7L1600 624L1600 701L1573.3 701C1546.7 701 1493.3 701 1440 701C1386.7 701 1333.3 701 1280 701C1226.7 701 1173.3 701 1120 701C1066.7 701 1013.3 701 960 701C906.7 701 853.3 701 800 701C746.7 701 693.3 701 640 701C586.7 701 533.3 701 480 701C426.7 701 373.3 701 320 701C266.7 701 213.3 701 160 701C106.7 701 53.3 701 26.7 701L0 701Z" fill="#d58b1d" stroke-linecap="round" stroke-linejoin="miter"></path></svg>