<svg id="visual" viewBox="0 0 1000 1000" width="1000" height="1000" xmlns="http://www.w3.org/2000/svg" xmlns:xlink="http://www.w3.org/1999/xlink" version="1.1"><rect x="0" y="0" width="1000" height="1000" fill="#ffffff"></rect><path d="M0 1080L33.8 1224.2C67.7 1368.3 135.3 1656.7 203 1780.5C270.7 1904.3 338.3 1863.7 406 1790.2C473.7 1716.7 541.3 1610.3 608.8 1465.2C676.3 1320 743.7 1136 811.2 1107.2C878.7 1078.3 946.3 1204.7 1014 1276C1081.7 1347.3 1149.3 1363.7 1217 1314.7C1284.7 1265.7 1352.3 1151.3 1386.2 1094.2L1420 1037L1420 2221L1386.2 2221C1352.3 2221 1284.7 2221 1217 2221C1149.3 2221 1081.7 2221 1014 2221C946.3 2221 878.7 2221 811.2 2221C743.7 2221 676.3 2221 608.8 2221C541.3 2221 473.7 2221 406 2221C338.3 2221 270.7 2221 203 2221C135.3 2221 67.7 2221 33.8 2221L0 2221Z" fill="#b4c5dd" stroke-linecap="round" stroke-linejoin="miter"></path></svg>