<svg id="visual" viewBox="0 0 1600 800" width="1600" height="800" xmlns="http://www.w3.org/2000/svg" xmlns:xlink="http://www.w3.org/1999/xlink" version="1.1"><rect x="0" y="0" width="1600" height="800" fill="#FFDD79"></rect><path d="M0 346L26.7 365.3C53.3 384.7 106.7 423.3 160 435.8C213.3 448.3 266.7 434.7 320 437.3C373.3 440 426.7 459 480 450.8C533.3 442.7 586.7 407.3 640 404.7C693.3 402 746.7 432 800 446.3C853.3 460.7 906.7 459.3 960 445C1013.3 430.7 1066.7 403.3 1120 409.2C1173.3 415 1226.7 454 1280 463.5C1333.3 473 1386.7 453 1440 457.2C1493.3 461.3 1546.7 489.7 1573.3 503.8L1600 518L1600 601L1573.3 601C1546.7 601 1493.3 601 1440 601C1386.7 601 1333.3 601 1280 601C1226.7 601 1173.3 601 1120 601C1066.7 601 1013.3 601 960 601C906.7 601 853.3 601 800 601C746.7 601 693.3 601 640 601C586.7 601 533.3 601 480 601C426.7 601 373.3 601 320 601C266.7 601 213.3 601 160 601C106.7 601 53.3 601 26.7 601L0 601Z" fill="#d58b1d" stroke-linecap="round" stroke-linejoin="miter"></path></svg>