<svg id="visual" viewBox="0 0 1200 600" width="1200" height="600" xmlns="http://www.w3.org/2000/svg" xmlns:xlink="http://www.w3.org/1999/xlink" version="1.1"><rect x="0" y="0" width="1200" height="600" fill="#FFDD79"></rect><path d="M0 578L26.7 610C53.3 642 106.7 706 160 726.7C213.3 747.3 266.7 724.7 320 729.2C373.3 733.7 426.7 765.3 480 751.7C533.3 738 586.7 679 640 674.7C693.3 670.3 746.7 720.7 800 744.8C853.3 769 906.7 767 960 743C1013.3 719 1066.7 673 1120 682.7C1173.3 692.3 1226.7 757.7 1280 773.5C1333.3 789.3 1386.7 755.7 1440 762.7C1493.3 769.7 1546.7 817.3 1573.3 841.2L1600 865L1600 1001L1573.3 1001C1546.7 1001 1493.3 1001 1440 1001C1386.7 1001 1333.3 1001 1280 1001C1226.7 1001 1173.3 1001 1120 1001C1066.7 1001 1013.3 1001 960 1001C906.7 1001 853.3 1001 800 1001C746.7 1001 693.3 1001 640 1001C586.7 1001 533.3 1001 480 1001C426.7 1001 373.3 1001 320 1001C266.7 1001 213.3 1001 160 1001C106.7 1001 53.3 1001 26.7 1001L0 1001Z" fill="#d58b1d" stroke-linecap="round" stroke-linejoin="miter"></path></svg>