<svg id="visual" viewBox="0 0 1000 600" width="1000" height="600" xmlns="http://www.w3.org/2000/svg" xmlns:xlink="http://www.w3.org/1999/xlink" version="1.1"><rect x="0" y="0" width="1000" height="600" fill="#ffffff"></rect><g transform="translate(1121.4893746810671 2.1556823147150794)"><path d="M295.9 -417.9C399.4 -332.1 510.2 -266.9 539.4 -175.6C568.6 -84.3 516.1 33.2 497.8 184.1C479.6 335 495.5 519.4 418.2 622.8C340.9 726.2 170.5 748.6 31.5 705.2C-107.4 661.8 -214.7 552.6 -369.3 474.3C-523.8 396 -725.6 348.6 -776.8 240.7C-828.1 132.7 -728.8 -35.9 -668.8 -216.3C-608.8 -396.6 -588 -588.7 -483.1 -674.1C-378.1 -759.5 -189.1 -738.2 -46.4 -674.3C96.2 -610.4 192.4 -503.8 295.9 -417.9" fill="#ffcfcf"></path></g></svg>