<svg id="visual" viewBox="0 0 1420 1220" width="1420" height="1220" xmlns="http://www.w3.org/2000/svg" xmlns:xlink="http://www.w3.org/1999/xlink" version="1.1"><rect x="0" y="0" width="1420" height="1220" fill="#fff"></rect><defs><linearGradient id="grad1_0" x1="14.1%" y1="100%" x2="100%" y2="0%"><stop offset="26.721311475409838%" stop-color="#ffffff" stop-opacity="1"></stop><stop offset="73.27868852459017%" stop-color="#ffffff" stop-opacity="1"></stop></linearGradient></defs><defs><linearGradient id="grad2_0" x1="0%" y1="100%" x2="85.9%" y2="0%"><stop offset="26.721311475409838%" stop-color="#ffffff" stop-opacity="1"></stop><stop offset="73.27868852459017%" stop-color="#ffffff" stop-opacity="1"></stop></linearGradient></defs><g transform="translate(1420, 1220)"><path d="M-842.4 0C-746.1 -73.1 -649.7 -146.1 -624.5 -258.7C-599.4 -371.3 -645.5 -523.4 -595.7 -595.7C-545.9 -668 -400.4 -660.5 -285.1 -688.3C-169.8 -716.1 -84.9 -779.3 0 -842.4L0 0Z" fill="#FFDD79"></path></g><g transform="translate(0, 0)"><path d="M842.4 0C837.8 116.1 833.2 232.3 778.3 322.4C723.5 412.5 618.4 476.7 528.2 528.2C438 579.7 362.6 618.6 277.1 668.9C191.5 719.2 95.8 780.8 0 842.4L0 0Z" fill="#FFDD79"></path></g></svg>