<svg id="visual" viewBox="0 0 900 450" width="900" height="450" xmlns="http://www.w3.org/2000/svg" xmlns:xlink="http://www.w3.org/1999/xlink" version="1.1"><rect x="0" y="0" width="900" height="450" fill="#ffffff"></rect><g transform="translate(941.3851435733438 31.974757587983675)"><path d="M246.8 -348.7C350.3 -264.5 485.7 -233.1 536.7 -155.6C587.8 -78.1 554.5 45.6 490.8 134.1C427.2 222.7 333.2 276 246.3 317.4C159.5 358.8 79.7 388.4 -31.8 432.1C-143.3 475.9 -286.5 533.7 -393.4 498.8C-500.2 463.8 -570.6 336 -611.5 200.9C-652.4 65.7 -663.8 -76.8 -595.3 -164.3C-526.8 -251.7 -378.3 -284 -265.8 -365.3C-153.2 -446.6 -76.6 -576.8 -2.5 -573.4C71.6 -569.9 143.3 -432.9 246.8 -348.7" fill="#ffcfcf"></path></g></svg>