<svg id="visual" viewBox="0 0 2500 1850" width="1200" height="1950" xmlns="http://www.w3.org/2000/svg" xmlns:xlink="http://www.w3.org/1999/xlink" version="1.1"><rect x="0" y="0" width="1800" height="450" fill="#ffffff"></rect><g transform="translate(1855.4618633259427 -3.8602737606362894)"><path d="M343.3 -465.8C443.6 -399.6 522.8 -297.6 530.4 -191.8C538 -86 473.9 23.6 409.4 105.5C344.9 187.4 279.9 241.6 211.6 333.7C143.3 425.9 71.6 555.9 -1.5 558C-74.6 560.1 -149.3 434.2 -251.4 353C-353.5 271.8 -483 235.4 -561.6 146.4C-640.1 57.3 -667.8 -84.3 -614.3 -184.4C-560.8 -284.4 -426.2 -342.8 -310.3 -404C-194.4 -465.2 -97.2 -529.1 12.1 -545.8C121.5 -562.5 243 -532.1 343.3 -465.8" fill="#ffcfcf"></path></g></svg>