<!-- <svg id="visual" viewBox="0 0 1920 1200" width="1920" height="1200" xmlns="http://www.w3.org/2000/svg" xmlns:xlink="http://www.w3.org/1999/xlink" version="1.1"><g transform="translate(-45.081964934207576 -91.72519762087768)"><path d="M1143.2 -681C1333.2 -331 1236.5 163.6 998.2 593.7C759.9 1023.8 380 1389.4 -14.4 1397.7C-408.8 1406 -817.5 1057 -1014.3 650.9C-1211 244.8 -1195.7 -218.3 -991.3 -576.7C-786.9 -935 -393.5 -1188.5 41.6 -1212.5C476.6 -1236.5 953.2 -1031 1143.2 -681" fill="#fffcd5"></path></g></svg> -->


<svg id="10015.io" viewBox="0 0 480 480" xmlns="http://www.w3.org/2000/svg" xmlns:xlink="http://www.w3.org/1999/xlink" >
	<path fill="#c7c7c7" d="M442,273Q421,306,419,347.5Q417,389,388.5,418Q360,447,316.5,438Q273,429,238,439Q203,449,171.5,430.5Q140,412,109.5,393.5Q79,375,62.5,343Q46,311,30,275.5Q14,240,14.5,199Q15,158,47,131.5Q79,105,108,83Q137,61,170.5,48Q204,35,242,23Q280,11,313,33.5Q346,56,372.5,81.5Q399,107,424,135.5Q449,164,456,202Q463,240,442,273Z" />
</svg>