<svg id="visual" viewBox="0 0 1920 780" width="1920" height="780" xmlns="http://www.w3.org/2000/svg" xmlns:xlink="http://www.w3.org/1999/xlink" version="1.1"><rect x="0" y="0" width="1920" height="780" fill="#ffffff"></rect><g transform="translate(2039.4684495046727 -137.14118775789746)"><path d="M407.5 -538.7C473.6 -430.3 434.8 -250.1 489.6 -67.4C544.4 115.3 692.6 300.4 681.6 463.2C670.6 625.9 500.3 766.4 299 853.4C97.8 940.5 -134.5 974.1 -325.5 901.5C-516.5 828.9 -666.1 649.9 -778 451.5C-889.9 253 -963.9 35 -893.7 -121.9C-823.5 -278.8 -609.1 -374.6 -436.1 -464.1C-263.1 -553.6 -131.6 -636.8 19.6 -660.1C170.8 -683.5 341.5 -647 407.5 -538.7" fill="#ffcfcf"></path></g></svg>