<svg id="visual" viewBox="0 0 1920 1080" width="1920" height="1080" xmlns="http://www.w3.org/2000/svg" xmlns:xlink="http://www.w3.org/1999/xlink" version="1.1"><rect x="0" y="0" width="1920" height="1080" fill="#ffffff"></rect><g transform="translate(1750.4823351102305 286.86470837288186)"><path d="M859.7 -1235.6C1072.4 -1028.7 1174.4 -721.7 1290.8 -408.7C1407.2 -95.7 1538.2 223.3 1413.2 413.2C1288.3 603.2 907.5 664 629.3 750C351.1 835.9 175.6 947 1.8 944.5C-171.9 942 -343.9 825.9 -530.3 710.2C-716.7 594.4 -917.6 478.9 -1025.4 297.6C-1133.3 116.3 -1148.2 -130.8 -1095.4 -375.2C-1042.5 -619.5 -921.8 -861.1 -728 -1074.1C-534.1 -1287.1 -267.1 -1471.6 28.2 -1510.4C323.5 -1549.2 647 -1442.5 859.7 -1235.6" fill="#ffcfcf"></path></g></svg>