<svg id="visual" viewBox="0 0 1420 1220" width="1420" height="1220" xmlns="http://www.w3.org/2000/svg" xmlns:xlink="http://www.w3.org/1999/xlink" version="1.1"><rect x="0" y="0" width="1420" height="1220" fill="#ffffff"></rect><g transform="translate(115.84330027999522 -79.3910920930532)"><path d="M909.5 -1115.8C1108.1 -917.3 1149.9 -563.7 1151.8 -248.1C1153.8 67.4 1116 345 1008.9 631.3C901.8 917.7 725.4 1213 450 1371.9C174.7 1530.9 -199.5 1553.6 -442.3 1389.6C-685.2 1225.6 -796.6 874.9 -968.2 565.1C-1139.7 255.2 -1371.5 -13.7 -1383.1 -295.3C-1394.7 -576.9 -1186.2 -871 -919 -1057.4C-651.8 -1243.8 -325.9 -1322.4 14.8 -1340C355.5 -1357.6 710.9 -1314.2 909.5 -1115.8" fill="#e4e3e0"></path></g></svg>