<svg id="visual" viewBox="0 0 920 780" width="920" height="780" xmlns="http://www.w3.org/2000/svg" xmlns:xlink="http://www.w3.org/1999/xlink" version="1.1"><rect x="0" y="0" width="920" height="780" fill="#ffffff"></rect><g transform="translate(830.0118987542079 -157.59592290863458)"><path d="M401.5 -505.8C467.6 -423.2 431.8 -246.5 502.7 -57.2C573.7 132.2 751.2 334.2 742.7 503.7C734.1 673.2 539.4 810.2 334 859.9C128.6 909.6 -87.6 872 -251 775.3C-414.4 678.6 -525 522.8 -554.5 369.6C-584 216.4 -532.3 65.8 -469.7 -47C-407.2 -159.9 -333.7 -235.1 -253.7 -315.3C-173.6 -395.5 -86.8 -480.7 40.5 -529C167.8 -577.3 335.5 -588.5 401.5 -505.8" fill="#ffcfcf"></path></g></svg>