<svg id="visual" viewBox="0 0 1220 780" width="1220" height="780" xmlns="http://www.w3.org/2000/svg" xmlns:xlink="http://www.w3.org/1999/xlink" version="1.1"><rect x="0" y="0" width="1220" height="780" fill="#ffffff"></rect><g transform="translate(1247.5878961027533 48.240538381414126)"><path d="M441 -548.2C594.8 -396.6 758.8 -279.6 796.7 -130.7C834.6 18.2 746.4 199.1 651.6 388.3C556.8 577.5 455.4 775.1 301.1 834.2C146.8 893.3 -60.3 814.1 -238.8 721C-417.3 627.9 -567.2 520.9 -679.4 370.8C-791.5 220.7 -866 27.4 -860.6 -177.5C-855.2 -382.5 -769.9 -599.2 -613.1 -750.3C-456.4 -901.4 -228.2 -986.9 -42.3 -936.6C143.6 -886.2 287.2 -699.8 441 -548.2" fill="#ffcfcf"></path></g></svg>