<svg id="visual" viewBox="0 0 1400 900" width="1400" height="900" xmlns="http://www.w3.org/2000/svg" xmlns:xlink="http://www.w3.org/1999/xlink" version="1.1"><rect x="0" y="0" width="1400" height="900" fill="#ffffff"></rect><path d="M0 366L21.2 385.3C42.3 404.7 84.7 443.3 127.2 471.2C169.7 499 212.3 516 254.8 518.2C297.3 520.3 339.7 507.7 382 501.2C424.3 494.7 466.7 494.3 509 473.2C551.3 452 593.7 410 636.2 385.7C678.7 361.3 721.3 354.7 763.8 351.8C806.3 349 848.7 350 891 377.8C933.3 405.7 975.7 460.3 1018 461.7C1060.3 463 1102.7 411 1145.2 398.8C1187.7 386.7 1230.3 414.3 1272.8 416.8C1315.3 419.3 1357.7 396.7 1378.8 385.3L1400 374L1400 901L1378.8 901C1357.7 901 1315.3 901 1272.8 901C1230.3 901 1187.7 901 1145.2 901C1102.7 901 1060.3 901 1018 901C975.7 901 933.3 901 891 901C848.7 901 806.3 901 763.8 901C721.3 901 678.7 901 636.2 901C593.7 901 551.3 901 509 901C466.7 901 424.3 901 382 901C339.7 901 297.3 901 254.8 901C212.3 901 169.7 901 127.2 901C84.7 901 42.3 901 21.2 901L0 901Z" fill="#fa7268"></path><path d="M0 485L21.2 475.2C42.3 465.3 84.7 445.7 127.2 435.7C169.7 425.7 212.3 425.3 254.8 445.2C297.3 465 339.7 505 382 512.2C424.3 519.3 466.7 493.7 509 501C551.3 508.3 593.7 548.7 636.2 552.3C678.7 556 721.3 523 763.8 496.2C806.3 469.3 848.7 448.7 891 441.2C933.3 433.7 975.7 439.3 1018 465C1060.3 490.7 1102.7 536.3 1145.2 560.2C1187.7 584 1230.3 586 1272.8 567.3C1315.3 548.7 1357.7 509.3 1378.8 489.7L1400 470L1400 901L1378.8 901C1357.7 901 1315.3 901 1272.8 901C1230.3 901 1187.7 901 1145.2 901C1102.7 901 1060.3 901 1018 901C975.7 901 933.3 901 891 901C848.7 901 806.3 901 763.8 901C721.3 901 678.7 901 636.2 901C593.7 901 551.3 901 509 901C466.7 901 424.3 901 382 901C339.7 901 297.3 901 254.8 901C212.3 901 169.7 901 127.2 901C84.7 901 42.3 901 21.2 901L0 901Z" fill="#f16367"></path><path d="M0 636L21.2 627C42.3 618 84.7 600 127.2 585.8C169.7 571.7 212.3 561.3 254.8 570.5C297.3 579.7 339.7 608.3 382 611.5C424.3 614.7 466.7 592.3 509 585.8C551.3 579.3 593.7 588.7 636.2 593.3C678.7 598 721.3 598 763.8 601.2C806.3 604.3 848.7 610.7 891 615.3C933.3 620 975.7 623 1018 623.2C1060.3 623.3 1102.7 620.7 1145.2 613.7C1187.7 606.7 1230.3 595.3 1272.8 595.8C1315.3 596.3 1357.7 608.7 1378.8 614.8L1400 621L1400 901L1378.8 901C1357.7 901 1315.3 901 1272.8 901C1230.3 901 1187.7 901 1145.2 901C1102.7 901 1060.3 901 1018 901C975.7 901 933.3 901 891 901C848.7 901 806.3 901 763.8 901C721.3 901 678.7 901 636.2 901C593.7 901 551.3 901 509 901C466.7 901 424.3 901 382 901C339.7 901 297.3 901 254.8 901C212.3 901 169.7 901 127.2 901C84.7 901 42.3 901 21.2 901L0 901Z" fill="#e85467"></path><path d="M0 609L21.2 609C42.3 609 84.7 609 127.2 620.8C169.7 632.7 212.3 656.3 254.8 657C297.3 657.7 339.7 635.3 382 638.2C424.3 641 466.7 669 509 672.2C551.3 675.3 593.7 653.7 636.2 638.2C678.7 622.7 721.3 613.3 763.8 616.7C806.3 620 848.7 636 891 654.8C933.3 673.7 975.7 695.3 1018 686.3C1060.3 677.3 1102.7 637.7 1145.2 634.5C1187.7 631.3 1230.3 664.7 1272.8 667.7C1315.3 670.7 1357.7 643.3 1378.8 629.7L1400 616L1400 901L1378.8 901C1357.7 901 1315.3 901 1272.8 901C1230.3 901 1187.7 901 1145.2 901C1102.7 901 1060.3 901 1018 901C975.7 901 933.3 901 891 901C848.7 901 806.3 901 763.8 901C721.3 901 678.7 901 636.2 901C593.7 901 551.3 901 509 901C466.7 901 424.3 901 382 901C339.7 901 297.3 901 254.8 901C212.3 901 169.7 901 127.2 901C84.7 901 42.3 901 21.2 901L0 901Z" fill="#de4467"></path><path d="M0 738L21.2 741.3C42.3 744.7 84.7 751.3 127.2 750.7C169.7 750 212.3 742 254.8 744.2C297.3 746.3 339.7 758.7 382 764.5C424.3 770.3 466.7 769.7 509 755.7C551.3 741.7 593.7 714.3 636.2 703.7C678.7 693 721.3 699 763.8 704.5C806.3 710 848.7 715 891 726C933.3 737 975.7 754 1018 752.5C1060.3 751 1102.7 731 1145.2 723C1187.7 715 1230.3 719 1272.8 714.5C1315.3 710 1357.7 697 1378.8 690.5L1400 684L1400 901L1378.8 901C1357.7 901 1315.3 901 1272.8 901C1230.3 901 1187.7 901 1145.2 901C1102.7 901 1060.3 901 1018 901C975.7 901 933.3 901 891 901C848.7 901 806.3 901 763.8 901C721.3 901 678.7 901 636.2 901C593.7 901 551.3 901 509 901C466.7 901 424.3 901 382 901C339.7 901 297.3 901 254.8 901C212.3 901 169.7 901 127.2 901C84.7 901 42.3 901 21.2 901L0 901Z" fill="#d23467"></path><path d="M0 778L21.2 776.5C42.3 775 84.7 772 127.2 779.3C169.7 786.7 212.3 804.3 254.8 813C297.3 821.7 339.7 821.3 382 814C424.3 806.7 466.7 792.3 509 790C551.3 787.7 593.7 797.3 636.2 795.2C678.7 793 721.3 779 763.8 776.8C806.3 774.7 848.7 784.3 891 793C933.3 801.7 975.7 809.3 1018 803.5C1060.3 797.7 1102.7 778.3 1145.2 771.5C1187.7 764.7 1230.3 770.3 1272.8 782.8C1315.3 795.3 1357.7 814.7 1378.8 824.3L1400 834L1400 901L1378.8 901C1357.7 901 1315.3 901 1272.8 901C1230.3 901 1187.7 901 1145.2 901C1102.7 901 1060.3 901 1018 901C975.7 901 933.3 901 891 901C848.7 901 806.3 901 763.8 901C721.3 901 678.7 901 636.2 901C593.7 901 551.3 901 509 901C466.7 901 424.3 901 382 901C339.7 901 297.3 901 254.8 901C212.3 901 169.7 901 127.2 901C84.7 901 42.3 901 21.2 901L0 901Z" fill="#c62368"></path></svg>