<svg id="visual" viewBox="0 0 1420 2700" width="1420" height="2700" xmlns="http://www.w3.org/2000/svg" xmlns:xlink="http://www.w3.org/1999/xlink" version="1.1"><rect x="0" y="0" width="1420" height="2700" fill="#fff"></rect><g transform="translate(146.34362452634366 -109.72769309486887)"><path d="M529.1 -672.9C715.9 -473.8 918.3 -335.7 1013.9 -129.1C1109.4 77.4 1098.1 352.5 998.1 623.8C898.1 895.1 709.3 1162.6 442.1 1294.5C174.9 1426.5 -170.8 1422.7 -446.2 1293.2C-721.6 1163.8 -926.7 908.6 -1102.9 625.9C-1279 343.2 -1426.1 32.9 -1353.3 -214C-1280.4 -461 -987.6 -644.5 -725.4 -830.3C-463.2 -1016.1 -231.6 -1204 -30.2 -1168C171.1 -1132 342.3 -871.9 529.1 -672.9" fill="#FFDD79"></path></g></svg>