<svg id="visual" viewBox="0 0 1800 0" width="1800" height="170" xmlns="http://www.w3.org/2000/svg" xmlns:xlink="http://www.w3.org/1999/xlink" version="1.1"><rect x="0" y="0" width="1800" height="1720" fill="#ffffff"></rect><defs><linearGradient id="grad1_0" x1="14.1%" y1="100%" x2="100%" y2="0%"><stop offset="26.721311475409838%" stop-color="#ffffff" stop-opacity="1"></stop><stop offset="73.27868852459017%" stop-color="#ffffff" stop-opacity="1"></stop></linearGradient></defs><defs><linearGradient id="grad2_0" x1="0%" y1="100%" x2="85.9%" y2="0%"><stop offset="26.721311475409838%" stop-color="#ffffff" stop-opacity="1"></stop><stop offset="73.27868852459017%" stop-color="#ffffff" stop-opacity="1"></stop></linearGradient></defs><g transform="translate(1800, 1720)"><path d="M-936.1 0C-928.3 -127.4 -920.5 -254.7 -864.8 -358.2C-809.1 -461.7 -705.6 -541.3 -610.2 -610.2C-514.8 -679.2 -427.5 -737.4 -327.2 -789.9C-226.8 -842.4 -113.4 -889.2 0 -936.1L0 0Z" fill="#69C5FA"></path></g><g transform="translate(0, 0)"><path d="M936.1 0C890.8 116.4 845.6 232.9 785.3 325.3C725 417.7 649.7 486.1 581.9 581.9C514.2 677.8 453.9 801.2 358.2 864.8C262.5 928.4 131.2 932.2 0 936.1L0 0Z" fill="#FFDD79"></path></g></svg>