<svg id="visual" viewBox="0 0 1420 780" width="1420" height="780" xmlns="http://www.w3.org/2000/svg" xmlns:xlink="http://www.w3.org/1999/xlink" version="1.1"><rect x="0" y="0" width="1420" height="780" fill="#ffffff"></rect><g transform="translate(1498.1528389585576 58.51462298854216)"><path d="M479 -637.9C589 -478.5 624.6 -297.5 666.1 -110.3C707.7 76.9 755.2 270.2 692 418C628.7 565.8 454.6 668.2 268.6 734.4C82.5 800.6 -115.4 830.7 -264.3 761.3C-413.2 691.8 -513.2 522.9 -635.3 348.7C-757.4 174.5 -901.6 -4.9 -876 -155.2C-850.4 -305.5 -655 -426.6 -480.7 -574.6C-306.4 -722.6 -153.2 -897.6 15.6 -916.2C184.5 -934.9 369 -797.2 479 -637.9" fill="#ffcfcf"></path></g></svg>