<svg id="visual" viewBox="0 0 1420 1220" width="1420" height="1220" xmlns="http://www.w3.org/2000/svg" xmlns:xlink="http://www.w3.org/1999/xlink" version="1.1"><rect x="0" y="0" width="1420" height="1220" fill="#ffffff"></rect><g transform="translate(1358.28254522712202 19.20304748325475)"><path d="M414.4 -548.1C513.9 -410.4 555.3 -257.8 611.6 -86.1C667.8 85.7 738.8 276.6 687.6 426.9C636.5 577.3 463.3 687.1 280.1 741.5C97 795.9 -96 795 -244.8 720.2C-393.6 645.4 -498.2 496.7 -545.9 347.4C-593.7 198.2 -584.6 48.3 -570.6 -112.7C-556.6 -273.7 -537.7 -446 -441.7 -584.2C-345.8 -722.5 -172.9 -826.7 -7.7 -817.5C157.5 -808.3 315 -685.7 414.4 -548.1" fill="#91D7FF"></path></g></svg>