<svg width="190" height="39" viewBox="0 0 190 39" fill="none" xmlns="http://www.w3.org/2000/svg">
<path d="M8.55259 16.8402H0V15.8375C0 15.4653 0.147891 15.1082 0.411137 14.845C0.674383 14.5817 1.03142 14.4338 1.40371 14.4338H8.54657C8.86995 14.4378 9.18926 14.3614 9.47588 14.2116C9.76251 14.0618 10.0075 13.8433 10.1889 13.5756C11.4422 11.6846 10.0907 9.67927 8.27787 9.67927H1.90904C1.65949 9.68059 1.41213 9.63271 1.18109 9.53837C0.950057 9.44403 0.739883 9.30507 0.562585 9.12945C0.385287 8.95383 0.244342 8.74499 0.14781 8.51486C0.0512779 8.28473 0.0010506 8.03783 0 7.78828V7.29297H8.27987C11.7109 7.29297 14.3158 10.8704 12.491 14.4599C12.1171 15.1807 11.5516 15.7843 10.8567 16.2042C10.1618 16.6242 9.36453 16.8443 8.55259 16.8402Z" fill="#2B64DA"/>
<path d="M10.3072 2.53431H0C0.00476318 1.89923 0.260391 1.29179 0.711155 0.844409C1.16192 0.397026 1.77127 0.145978 2.40636 0.145996H12.7156C12.7108 0.781069 12.4552 1.38851 12.0044 1.83589C11.5537 2.28328 10.9443 2.53432 10.3092 2.53431H10.3072Z" fill="#2B64DA"/>
<path d="M31.3087 2.53431H17.027C17.0318 1.89923 17.2874 1.29179 17.7381 0.844409C18.1889 0.397026 18.7983 0.145978 19.4333 0.145996H28.8903C29.5254 0.145978 30.1348 0.397026 30.5855 0.844409C31.0363 1.29179 31.2919 1.89923 31.2967 2.53431H31.3087Z" fill="#2B64DA"/>
<path d="M30.1035 9.6915H18.2341C17.9167 9.69151 17.6122 9.56612 17.3869 9.34265C17.1615 9.11917 17.0336 8.81571 17.0309 8.49834C17.0309 8.17924 17.1577 7.87321 17.3833 7.64757C17.609 7.42193 17.915 7.29517 18.2341 7.29517H30.1035C30.4226 7.29517 30.7286 7.42193 30.9542 7.64757C31.1799 7.87321 31.3067 8.17924 31.3067 8.49834C31.304 8.81571 31.1761 9.11917 30.9507 9.34265C30.7254 9.56612 30.4208 9.69151 30.1035 9.6915Z" fill="#2B64DA"/>
<path d="M28.8963 16.84H19.4393C18.8039 16.84 18.1942 16.5887 17.7434 16.1409C17.2926 15.6931 17.0372 15.0851 17.033 14.4497H31.3147C31.3104 15.0851 31.0551 15.6931 30.6042 16.1409C30.1534 16.5887 29.5438 16.84 28.9083 16.84H28.8963Z" fill="#2B64DA"/>
<path d="M48.492 16.8402H43.924C39.3238 16.8402 35.4536 13.2527 35.3433 8.69668C35.233 4.00228 39.0551 0.152111 43.7656 0.152111H48.492C48.5831 0.151583 48.6733 0.169022 48.7576 0.203428C48.8418 0.237834 48.9185 0.28853 48.9831 0.352612C49.0478 0.416694 49.0991 0.492902 49.1343 0.576869C49.1694 0.660836 49.1876 0.750912 49.1879 0.841934V1.84458C49.1876 1.9356 49.1694 2.02568 49.1343 2.10965C49.0991 2.19361 49.0478 2.26982 48.9831 2.3339C48.9185 2.39798 48.8418 2.44868 48.7576 2.48309C48.6733 2.51749 48.5831 2.53493 48.492 2.5344H43.9019C40.537 2.5344 37.6975 5.26161 37.7537 8.5924C37.7899 10.1614 38.4405 11.6535 39.5656 12.7478C40.6906 13.8421 42.2002 14.4511 43.7696 14.4439H48.4941C48.6779 14.4433 48.8545 14.5156 48.9853 14.6448C49.116 14.7741 49.1903 14.9498 49.1919 15.1337V16.1363C49.1919 16.2273 49.1739 16.3173 49.139 16.4012C49.1041 16.4852 49.0529 16.5614 48.9884 16.6255C48.924 16.6896 48.8474 16.7404 48.7633 16.7748C48.6791 16.8092 48.589 16.8267 48.4981 16.8262L48.492 16.8402Z" fill="#2B64DA"/>
<path d="M60.2912 16.8401H60.0386C59.1546 16.8443 58.2785 16.6744 57.4603 16.34C56.642 16.0055 55.8977 15.5132 55.2698 14.891C54.6418 14.2689 54.1426 13.5291 53.8007 12.714C53.4587 11.8989 53.2806 11.0244 53.2767 10.1404V0.63332C53.277 0.568725 53.29 0.50482 53.3151 0.445293C53.3402 0.385766 53.3768 0.331795 53.4228 0.286494C53.4689 0.241192 53.5235 0.205456 53.5834 0.181348C53.6433 0.157241 53.7074 0.145238 53.772 0.146033H55.1958C55.2602 0.145505 55.3241 0.157704 55.3838 0.181931C55.4435 0.206158 55.4978 0.241936 55.5436 0.287211C55.5895 0.332486 55.6259 0.386368 55.6509 0.445763C55.6758 0.505157 55.6888 0.568896 55.6891 0.63332V10.1324C55.697 11.2791 56.1594 12.3758 56.9747 13.1821C57.7901 13.9885 58.8919 14.4386 60.0386 14.4338H60.2912C61.4397 14.4391 62.5432 13.9881 63.3592 13.18C64.1752 12.3719 64.6369 11.2728 64.6427 10.1244V0.63332C64.643 0.568725 64.656 0.50482 64.6811 0.445293C64.7062 0.385766 64.7428 0.331795 64.7889 0.286494C64.8349 0.241192 64.8895 0.205456 64.9494 0.181348C65.0093 0.157241 65.0734 0.145238 65.138 0.146033H66.5618C66.6262 0.145505 66.6901 0.157704 66.7498 0.181931C66.8095 0.206158 66.8638 0.241936 66.9097 0.287211C66.9555 0.332486 66.9919 0.386368 67.0169 0.445763C67.0419 0.505157 67.0548 0.568896 67.0551 0.63332V10.1324C67.0519 11.0171 66.8744 11.8925 66.5327 12.7086C66.191 13.5246 65.6918 14.2653 65.0636 14.8883C64.4354 15.5113 63.6905 16.0043 62.8717 16.3392C62.0528 16.6741 61.1759 16.8443 60.2912 16.8401Z" fill="#2B64DA"/>
<path d="M165.301 16.8402H165.048C164.164 16.8444 163.288 16.6744 162.47 16.34C161.651 16.0056 160.907 15.5132 160.279 14.8911C159.651 14.2689 159.152 13.5291 158.81 12.714C158.468 11.8989 158.29 11.0244 158.286 10.1405V0.633349C158.286 0.568754 158.299 0.504849 158.324 0.445322C158.35 0.385795 158.386 0.331824 158.432 0.286522C158.478 0.241221 158.533 0.205485 158.593 0.181377C158.653 0.157269 158.717 0.145267 158.781 0.146062H160.205C160.27 0.145533 160.333 0.157733 160.393 0.18196C160.453 0.206187 160.507 0.241965 160.553 0.28724C160.599 0.332515 160.635 0.386397 160.66 0.445792C160.685 0.505186 160.698 0.568924 160.698 0.633349V10.1324C160.706 11.2791 161.169 12.3759 161.984 13.1822C162.799 13.9885 163.901 14.4386 165.048 14.4338H165.301C166.449 14.4391 167.553 13.9882 168.369 13.1801C169.185 12.3719 169.646 11.2728 169.652 10.1244V0.633349C169.652 0.568583 169.665 0.504512 169.691 0.444852C169.716 0.385192 169.753 0.33113 169.799 0.285802C169.845 0.240473 169.9 0.20478 169.96 0.180793C170.02 0.156805 170.085 0.145 170.149 0.146062H171.571C171.702 0.144991 171.827 0.195668 171.92 0.286997C172.014 0.378325 172.067 0.502865 172.068 0.633349V10.1324C172.059 11.9191 171.342 13.6291 170.073 14.8868C168.804 16.1445 167.087 16.8471 165.301 16.8402Z" fill="#2B64DA"/>
<path d="M84.7077 16.8402C83.8118 16.8414 82.9271 16.6414 82.1188 16.2552C81.3105 15.8689 80.5992 15.3061 80.0374 14.6083L76.0889 9.67926H73.5643H73.5542V16.2967C73.554 16.366 73.5401 16.4345 73.5133 16.4984C73.4866 16.5623 73.4475 16.6203 73.3983 16.6691C73.3492 16.7179 73.2909 16.7565 73.2268 16.7828C73.1627 16.809 73.0941 16.8224 73.0248 16.8221H71.6693C71.6 16.8224 71.5314 16.809 71.4673 16.7828C71.4032 16.7565 71.3449 16.7179 71.2957 16.6691C71.2466 16.6203 71.2075 16.5623 71.1808 16.4984C71.154 16.4345 71.1401 16.366 71.1399 16.2967V7.29697C71.1399 7.29697 71.1399 7.29697 71.1499 7.29697H79.3255C80.6069 7.29697 81.7318 6.34044 81.812 5.07109C81.8312 4.74525 81.7835 4.41893 81.6717 4.11225C81.5599 3.80557 81.3865 3.52503 81.1622 3.28793C80.9379 3.05082 80.6674 2.86217 80.3673 2.73361C80.0673 2.60505 79.7441 2.5393 79.4177 2.54041H73.45C73.1467 2.54226 72.8461 2.48413 72.5654 2.36937C72.2848 2.25461 72.0295 2.08548 71.8145 1.87171C71.5994 1.65795 71.4287 1.40377 71.3123 1.12379C71.1958 0.843812 71.1358 0.543568 71.1358 0.240333V0.1521H71.1459H79.2894C81.8963 0.1521 84.1282 2.1574 84.2244 4.74222C84.2446 5.38574 84.1349 6.02674 83.9019 6.62691C83.6688 7.22708 83.3171 7.77411 82.8679 8.23532C82.4187 8.69654 81.8811 9.06246 81.2873 9.31125C80.6934 9.56003 80.0555 9.68656 79.4117 9.68327H79.1189L84.7057 16.8241V16.8402H84.7077Z" fill="#2B64DA"/>
<path d="M181.407 0.145996H176.161C176.163 0.460237 176.226 0.771084 176.348 1.06075C176.47 1.35042 176.648 1.61322 176.871 1.83411C177.095 2.05501 177.36 2.22967 177.651 2.3481C177.942 2.46652 178.253 2.52639 178.568 2.52428H181.427C184.969 2.52428 187.824 5.39586 187.579 8.89511C187.463 10.4048 186.78 11.8146 185.668 12.8418C184.555 13.8691 183.096 14.4377 181.582 14.4337H178.574C178.574 14.4337 178.574 14.4337 178.574 14.4237V7.71399C178.574 7.71399 178.574 7.70396 178.564 7.70396H176.161C176.161 7.70396 176.161 7.70396 176.161 7.71399V16.824V16.8341H181.576C186.286 16.8341 190.104 12.9859 189.998 8.29953C189.894 3.73548 186.013 0.145996 181.409 0.145996H181.407Z" fill="#2B64DA"/>
<path d="M136.434 16.8401H125.163V0.145996C125.798 0.145978 126.407 0.397026 126.858 0.844409C127.309 1.29179 127.564 1.89923 127.569 2.5343V14.4438H134.022C134.657 14.4437 135.267 14.6951 135.718 15.1429C136.169 15.5907 136.424 16.1987 136.428 16.8341L136.434 16.8401Z" fill="#2B64DA"/>
<path d="M146.068 16.8241C144.407 16.8091 142.788 16.3028 141.414 15.3691C140.041 14.4354 138.975 13.116 138.35 11.5772C137.725 10.0385 137.57 8.34923 137.903 6.72231C138.237 5.09539 139.045 3.60363 140.225 2.43501C141.405 1.26639 142.904 0.473215 144.534 0.155436C146.164 -0.162343 147.852 0.0094944 149.385 0.649294C150.917 1.28909 152.226 2.36823 153.147 3.7507C154.067 5.13317 154.557 6.75712 154.556 8.41789C154.556 13.0521 150.746 16.8281 146.064 16.8281L146.068 16.8241ZM146.068 2.38596C144.882 2.39902 143.726 2.7625 142.745 3.43071C141.765 4.09893 141.004 5.04204 140.559 6.14145C140.113 7.24087 140.002 8.44751 140.241 9.60965C140.479 10.7718 141.055 11.8376 141.898 12.6729C142.74 13.5083 143.811 14.076 144.975 14.3046C146.139 14.5332 147.344 14.4126 148.44 13.9578C149.536 13.5031 150.473 12.7345 151.133 11.7488C151.793 10.7631 152.147 9.6042 152.15 8.41789C152.139 6.81469 151.492 5.28128 150.353 4.15365C149.213 3.02601 147.673 2.39613 146.07 2.402L146.068 2.38596Z" fill="#2B64DA"/>
<path d="M103.138 2.53431H88.8587C88.8635 1.89923 89.1191 1.29179 89.5699 0.844409C90.0206 0.397026 90.63 0.145978 91.2651 0.145996H100.724C101.359 0.145978 101.968 0.397026 102.419 0.844409C102.87 1.29179 103.126 1.89923 103.13 2.53431H103.138Z" fill="#2B64DA"/>
<path d="M101.933 9.6915H90.0638C89.7465 9.69151 89.4419 9.56612 89.2166 9.34265C88.9912 9.11917 88.8633 8.81571 88.8607 8.49834C88.8607 8.17924 88.9874 7.87321 89.2131 7.64757C89.4387 7.42193 89.7447 7.29517 90.0638 7.29517H101.933C102.252 7.29517 102.558 7.42193 102.784 7.64757C103.01 7.87321 103.136 8.17924 103.136 8.49834C103.134 8.81571 103.006 9.11917 102.78 9.34265C102.555 9.56612 102.251 9.69151 101.933 9.6915Z" fill="#2B64DA"/>
<path d="M100.728 16.84H91.269C90.6336 16.84 90.024 16.5887 89.5731 16.1409C89.1223 15.6931 88.8669 15.0851 88.8627 14.4497H103.142C103.138 15.0851 102.883 15.6931 102.432 16.1409C101.981 16.5887 101.371 16.84 100.736 16.84H100.728Z" fill="#2B64DA"/>
<path d="M107.225 0.144043H109.636V16.8241H107.225V0.144043Z" fill="#2B64DA"/>
<path d="M121.334 16.8401L113.247 8.64645L122.05 0.146H119.608C118.991 0.144827 118.398 0.38275 117.954 0.809753L109.838 8.59832L117.123 16.0179C117.378 16.277 117.682 16.4828 118.017 16.6233C118.352 16.7638 118.711 16.8361 119.074 16.8361L121.334 16.8401Z" fill="#2B64DA"/>
<path d="M7.34766 31.9985C7.34766 33.2948 6.99495 34.2866 6.28955 34.9741C5.58773 35.658 4.57617 36 3.25488 36H1.07959V28.1475H3.48584C4.70687 28.1475 5.65576 28.4858 6.33252 29.1626C7.00928 29.8394 7.34766 30.7847 7.34766 31.9985ZM6.38086 32.0308C6.38086 31.0067 6.12305 30.235 5.60742 29.7158C5.09538 29.1966 4.33268 28.937 3.31934 28.937H1.99268V35.2104H3.10449C4.19303 35.2104 5.01123 34.9437 5.55908 34.4102C6.10693 33.873 6.38086 33.0799 6.38086 32.0308ZM11.2365 36.1074C10.3664 36.1074 9.67893 35.8424 9.17404 35.3125C8.67274 34.7826 8.42209 34.0467 8.42209 33.105C8.42209 32.1561 8.65484 31.4023 9.12033 30.8438C9.58941 30.2852 10.2178 30.0059 11.0056 30.0059C11.7432 30.0059 12.3269 30.2493 12.7566 30.7363C13.1863 31.2197 13.4011 31.8589 13.4011 32.6538V33.2178H9.34592C9.36382 33.9089 9.53749 34.4334 9.86691 34.7915C10.1999 35.1496 10.6672 35.3286 11.2688 35.3286C11.9026 35.3286 12.5292 35.1961 13.1487 34.9312V35.7261C12.8335 35.8621 12.5346 35.9588 12.2517 36.0161C11.9724 36.077 11.634 36.1074 11.2365 36.1074ZM10.9948 30.7524C10.5222 30.7524 10.1444 30.9064 9.86154 31.2144C9.58225 31.5223 9.41753 31.9484 9.3674 32.4927H12.445C12.445 31.9305 12.3197 31.5008 12.0691 31.2036C11.8184 30.9028 11.4603 30.7524 10.9948 30.7524ZM15.5981 36H14.7065V27.6426H15.5981V36ZM18.1603 36H17.2687V30.1133H18.1603V36ZM17.1935 28.5181C17.1935 28.314 17.2436 28.1654 17.3439 28.0723C17.4442 27.9756 17.5695 27.9272 17.7199 27.9272C17.8631 27.9272 17.9866 27.9756 18.0905 28.0723C18.1943 28.1689 18.2463 28.3175 18.2463 28.5181C18.2463 28.7186 18.1943 28.869 18.0905 28.9692C17.9866 29.0659 17.8631 29.1143 17.7199 29.1143C17.5695 29.1143 17.4442 29.0659 17.3439 28.9692C17.2436 28.869 17.1935 28.7186 17.1935 28.5181ZM21.12 36L18.8856 30.1133H19.8417L21.1093 33.6045C21.3957 34.4209 21.564 34.9508 21.6141 35.1943H21.6571C21.6965 35.0046 21.82 34.6125 22.0277 34.0181C22.239 33.4201 22.7098 32.1185 23.4403 30.1133H24.3964L22.162 36H21.12ZM27.6085 36.1074C26.7384 36.1074 26.0509 35.8424 25.546 35.3125C25.0447 34.7826 24.794 34.0467 24.794 33.105C24.794 32.1561 25.0268 31.4023 25.4923 30.8438C25.9614 30.2852 26.5898 30.0059 27.3775 30.0059C28.1152 30.0059 28.6988 30.2493 29.1285 30.7363C29.5582 31.2197 29.773 31.8589 29.773 32.6538V33.2178H25.7179C25.7358 33.9089 25.9094 34.4334 26.2389 34.7915C26.5719 35.1496 27.0392 35.3286 27.6407 35.3286C28.2745 35.3286 28.9011 35.1961 29.5206 34.9312V35.7261C29.2055 35.8621 28.9065 35.9588 28.6236 36.0161C28.3443 36.077 28.006 36.1074 27.6085 36.1074ZM27.3668 30.7524C26.8941 30.7524 26.5164 30.9064 26.2335 31.2144C25.9542 31.5223 25.7895 31.9484 25.7394 32.4927H28.817C28.817 31.9305 28.6917 31.5008 28.441 31.2036C28.1904 30.9028 27.8323 30.7524 27.3668 30.7524ZM33.764 30.0059C34.0254 30.0059 34.2599 30.0273 34.4676 30.0703L34.3441 30.8975C34.1006 30.8438 33.8857 30.8169 33.6995 30.8169C33.2233 30.8169 32.8151 31.0103 32.4749 31.397C32.1383 31.7837 31.97 32.2653 31.97 32.8418V36H31.0784V30.1133H31.8143L31.9163 31.2036H31.9593C32.1777 30.8205 32.4409 30.5251 32.7488 30.3174C33.0568 30.1097 33.3952 30.0059 33.764 30.0059ZM36.2403 36H35.3487V30.1133H36.2403V36ZM35.2735 28.5181C35.2735 28.314 35.3236 28.1654 35.4239 28.0723C35.5241 27.9756 35.6495 27.9272 35.7998 27.9272C35.9431 27.9272 36.0666 27.9756 36.1704 28.0723C36.2743 28.1689 36.3262 28.3175 36.3262 28.5181C36.3262 28.7186 36.2743 28.869 36.1704 28.9692C36.0666 29.0659 35.9431 29.1143 35.7998 29.1143C35.6495 29.1143 35.5241 29.0659 35.4239 28.9692C35.3236 28.869 35.2735 28.7186 35.2735 28.5181ZM41.9392 36V32.1919C41.9392 31.7121 41.83 31.354 41.6116 31.1177C41.3932 30.8813 41.0512 30.7632 40.5857 30.7632C39.9698 30.7632 39.5186 30.9297 39.2322 31.2627C38.9457 31.5957 38.8025 32.1453 38.8025 32.9116V36H37.9109V30.1133H38.636L38.781 30.9189H38.824C39.0066 30.6289 39.2626 30.4051 39.5921 30.2476C39.9215 30.0864 40.2885 30.0059 40.6931 30.0059C41.4021 30.0059 41.9356 30.1777 42.2937 30.5215C42.6518 30.8617 42.8308 31.4077 42.8308 32.1597V36H41.9392ZM49.2656 30.1133V30.6772L48.1753 30.8062C48.2755 30.9315 48.3651 31.0962 48.4438 31.3003C48.5226 31.5008 48.562 31.7282 48.562 31.9824C48.562 32.5589 48.3651 33.019 47.9712 33.3628C47.5773 33.7065 47.0366 33.8784 46.3491 33.8784C46.1736 33.8784 46.0089 33.8641 45.855 33.8354C45.4754 34.036 45.2856 34.2884 45.2856 34.5928C45.2856 34.7539 45.3519 34.8739 45.4844 34.9526C45.6168 35.0278 45.8442 35.0654 46.1665 35.0654H47.2085C47.8458 35.0654 48.3346 35.1997 48.6748 35.4683C49.0185 35.7368 49.1904 36.1271 49.1904 36.6392C49.1904 37.2909 48.929 37.7868 48.4062 38.127C47.8834 38.4707 47.1207 38.6426 46.1181 38.6426C45.3483 38.6426 44.7539 38.4993 44.3349 38.2129C43.9196 37.9264 43.7119 37.5218 43.7119 36.999C43.7119 36.641 43.8265 36.3312 44.0556 36.0698C44.2848 35.8084 44.6071 35.6312 45.0224 35.5381C44.8721 35.4701 44.7449 35.3644 44.6411 35.2212C44.5408 35.078 44.4907 34.9115 44.4907 34.7217C44.4907 34.5068 44.548 34.3188 44.6626 34.1577C44.7772 33.9966 44.958 33.8408 45.2051 33.6904C44.9007 33.5651 44.6518 33.3521 44.4585 33.0513C44.2687 32.7505 44.1738 32.4067 44.1738 32.02C44.1738 31.3755 44.3672 30.8796 44.7539 30.5322C45.1406 30.1813 45.6885 30.0059 46.3974 30.0059C46.7054 30.0059 46.9829 30.0417 47.23 30.1133H49.2656ZM44.5713 36.9883C44.5713 37.307 44.7055 37.5487 44.9741 37.7134C45.2427 37.8781 45.6276 37.9604 46.1289 37.9604C46.8773 37.9604 47.4305 37.8477 47.7886 37.6221C48.1502 37.4001 48.331 37.0975 48.331 36.7144C48.331 36.3957 48.2326 36.1737 48.0356 36.0483C47.8387 35.9266 47.4681 35.8657 46.9238 35.8657H45.855C45.4503 35.8657 45.1352 35.9624 44.9096 36.1558C44.6841 36.3491 44.5713 36.6266 44.5713 36.9883ZM45.0547 31.9985C45.0547 32.4103 45.171 32.7218 45.4038 32.9331C45.6365 33.1444 45.9606 33.25 46.376 33.25C47.2461 33.25 47.6811 32.8275 47.6811 31.9824C47.6811 31.098 47.2407 30.6558 46.3598 30.6558C45.9409 30.6558 45.6186 30.7686 45.393 30.9941C45.1675 31.2197 45.0547 31.5545 45.0547 31.9985ZM56.3881 28.8511C55.5252 28.8511 54.843 29.1393 54.3417 29.7158C53.844 30.2887 53.5951 31.0747 53.5951 32.0737C53.5951 33.1014 53.835 33.8963 54.3149 34.4585C54.7983 35.0171 55.4858 35.2964 56.3774 35.2964C56.9252 35.2964 57.5501 35.1979 58.2519 35.001V35.8013C57.7076 36.0054 57.0362 36.1074 56.2377 36.1074C55.0811 36.1074 54.1877 35.7565 53.5575 35.0547C52.9309 34.3529 52.6176 33.3556 52.6176 32.063C52.6176 31.2537 52.768 30.5448 53.0688 29.936C53.3731 29.3273 53.81 28.8582 54.3793 28.5288C54.9522 28.1994 55.6254 28.0347 56.3988 28.0347C57.2224 28.0347 57.9421 28.1851 58.558 28.4858L58.1713 29.27C57.5769 28.9907 56.9825 28.8511 56.3881 28.8511ZM60.5026 36H59.611V27.6426H60.5026V36ZM67.2543 33.0513C67.2543 34.0109 67.0126 34.7611 66.5292 35.3018C66.0458 35.8389 65.378 36.1074 64.5257 36.1074C63.9994 36.1074 63.5321 35.9839 63.1239 35.7368C62.7157 35.4897 62.4006 35.1353 62.1786 34.6733C61.9566 34.2114 61.8456 33.6707 61.8456 33.0513C61.8456 32.0916 62.0855 31.3451 62.5653 30.8115C63.0451 30.2744 63.7111 30.0059 64.5633 30.0059C65.3869 30.0059 66.0404 30.2798 66.5238 30.8276C67.0108 31.3755 67.2543 32.1167 67.2543 33.0513ZM62.7694 33.0513C62.7694 33.8032 62.9198 34.3761 63.2206 34.77C63.5213 35.1639 63.9636 35.3608 64.5472 35.3608C65.1309 35.3608 65.5731 35.1657 65.8739 34.7754C66.1782 34.3815 66.3304 33.8068 66.3304 33.0513C66.3304 32.3029 66.1782 31.7354 65.8739 31.3486C65.5731 30.9583 65.1273 30.7632 64.5365 30.7632C63.9528 30.7632 63.5124 30.9548 63.2152 31.3379C62.918 31.721 62.7694 32.2922 62.7694 33.0513ZM69.4405 30.1133V33.9321C69.4405 34.4119 69.5497 34.77 69.7681 35.0063C69.9866 35.2427 70.3285 35.3608 70.794 35.3608C71.4099 35.3608 71.8593 35.1925 72.1422 34.856C72.4286 34.5194 72.5719 33.9697 72.5719 33.207V30.1133H73.4635V36H72.7276L72.5987 35.2104H72.5504C72.3678 35.5005 72.1135 35.7225 71.7877 35.8765C71.4654 36.0304 71.0966 36.1074 70.6812 36.1074C69.9651 36.1074 69.428 35.9373 69.0699 35.5972C68.7154 35.257 68.5382 34.7127 68.5382 33.9644V30.1133H69.4405ZM79.1463 35.2104H79.0979C78.6862 35.8084 78.0703 36.1074 77.2503 36.1074C76.4804 36.1074 75.8807 35.8442 75.451 35.3179C75.0249 34.7915 74.8118 34.0431 74.8118 33.0728C74.8118 32.1024 75.0267 31.3486 75.4563 30.8115C75.886 30.2744 76.484 30.0059 77.2503 30.0059C78.0488 30.0059 78.6611 30.2959 79.0872 30.876H79.157L79.1194 30.4517L79.0979 30.0381V27.6426H79.9895V36H79.2645L79.1463 35.2104ZM77.3631 35.3608C77.9718 35.3608 78.4122 35.1961 78.6844 34.8667C78.9601 34.5337 79.0979 33.9984 79.0979 33.2607V33.0728C79.0979 32.2384 78.9583 31.644 78.679 31.2896C78.4033 30.9315 77.9611 30.7524 77.3523 30.7524C76.8296 30.7524 76.4285 30.9565 76.1492 31.3647C75.8735 31.7694 75.7356 32.3423 75.7356 33.0835C75.7356 33.8354 75.8735 34.403 76.1492 34.7861C76.4249 35.1693 76.8296 35.3608 77.3631 35.3608ZM88.8147 36H84.4372V28.1475H88.8147V28.9585H85.3503V31.4883H88.6052V32.2939H85.3503V35.1836H88.8147V36ZM91.624 32.9868L89.5776 30.1133H90.5927L92.145 32.3691L93.6919 30.1133H94.6963L92.6499 32.9868L94.8037 36H93.7939L92.145 33.6152L90.4799 36H89.4702L91.624 32.9868ZM98.1071 36.1074C97.2549 36.1074 96.5943 35.846 96.1252 35.3232C95.6597 34.7969 95.4269 34.0539 95.4269 33.0942C95.4269 32.1095 95.6633 31.3486 96.1359 30.8115C96.6122 30.2744 97.2889 30.0059 98.1662 30.0059C98.4491 30.0059 98.7319 30.0363 99.0148 30.0972C99.2977 30.158 99.5197 30.2297 99.6808 30.312L99.4069 31.0693C99.21 30.9906 98.9951 30.9261 98.7624 30.876C98.5296 30.8223 98.3237 30.7954 98.1447 30.7954C96.9487 30.7954 96.3508 31.5581 96.3508 33.0835C96.3508 33.8068 96.4958 34.3618 96.7858 34.7485C97.0794 35.1353 97.5127 35.3286 98.0856 35.3286C98.5762 35.3286 99.0793 35.223 99.5949 35.0117V35.8013C99.201 36.0054 98.7051 36.1074 98.1071 36.1074ZM103.264 36.1074C102.393 36.1074 101.706 35.8424 101.201 35.3125C100.7 34.7826 100.449 34.0467 100.449 33.105C100.449 32.1561 100.682 31.4023 101.147 30.8438C101.616 30.2852 102.245 30.0059 103.033 30.0059C103.77 30.0059 104.354 30.2493 104.784 30.7363C105.213 31.2197 105.428 31.8589 105.428 32.6538V33.2178H101.373C101.391 33.9089 101.565 34.4334 101.894 34.7915C102.227 35.1496 102.694 35.3286 103.296 35.3286C103.93 35.3286 104.556 35.1961 105.176 34.9312V35.7261C104.861 35.8621 104.562 35.9588 104.279 36.0161C103.999 36.077 103.661 36.1074 103.264 36.1074ZM103.022 30.7524C102.549 30.7524 102.171 30.9064 101.889 31.2144C101.609 31.5223 101.445 31.9484 101.394 32.4927H104.472C104.472 31.9305 104.347 31.5008 104.096 31.2036C103.845 30.9028 103.487 30.7524 103.022 30.7524ZM107.625 36H106.734V27.6426H107.625V36ZM110.187 36H109.296V27.6426H110.187V36ZM114.345 36.1074C113.475 36.1074 112.787 35.8424 112.282 35.3125C111.781 34.7826 111.53 34.0467 111.53 33.105C111.53 32.1561 111.763 31.4023 112.229 30.8438C112.698 30.2852 113.326 30.0059 114.114 30.0059C114.851 30.0059 115.435 30.2493 115.865 30.7363C116.294 31.2197 116.509 31.8589 116.509 32.6538V33.2178H112.454C112.472 33.9089 112.646 34.4334 112.975 34.7915C113.308 35.1496 113.775 35.3286 114.377 35.3286C115.011 35.3286 115.637 35.1961 116.257 34.9312V35.7261C115.942 35.8621 115.643 35.9588 115.36 36.0161C115.081 36.077 114.742 36.1074 114.345 36.1074ZM114.103 30.7524C113.63 30.7524 113.253 30.9064 112.97 31.2144C112.69 31.5223 112.526 31.9484 112.476 32.4927H115.553C115.553 31.9305 115.428 31.5008 115.177 31.2036C114.927 30.9028 114.569 30.7524 114.103 30.7524ZM121.843 36V32.1919C121.843 31.7121 121.734 31.354 121.515 31.1177C121.297 30.8813 120.955 30.7632 120.49 30.7632C119.874 30.7632 119.422 30.9297 119.136 31.2627C118.85 31.5957 118.706 32.1453 118.706 32.9116V36H117.815V30.1133H118.54L118.685 30.9189H118.728C118.91 30.6289 119.166 30.4051 119.496 30.2476C119.825 30.0864 120.192 30.0059 120.597 30.0059C121.306 30.0059 121.839 30.1777 122.198 30.5215C122.556 30.8617 122.735 31.4077 122.735 32.1597V36H121.843ZM126.704 36.1074C125.852 36.1074 125.191 35.846 124.722 35.3232C124.257 34.7969 124.024 34.0539 124.024 33.0942C124.024 32.1095 124.26 31.3486 124.733 30.8115C125.209 30.2744 125.886 30.0059 126.763 30.0059C127.046 30.0059 127.329 30.0363 127.612 30.0972C127.895 30.158 128.117 30.2297 128.278 30.312L128.004 31.0693C127.807 30.9906 127.592 30.9261 127.359 30.876C127.127 30.8223 126.921 30.7954 126.742 30.7954C125.546 30.7954 124.948 31.5581 124.948 33.0835C124.948 33.8068 125.093 34.3618 125.383 34.7485C125.676 35.1353 126.11 35.3286 126.683 35.3286C127.173 35.3286 127.676 35.223 128.192 35.0117V35.8013C127.798 36.0054 127.302 36.1074 126.704 36.1074ZM131.861 36.1074C130.99 36.1074 130.303 35.8424 129.798 35.3125C129.297 34.7826 129.046 34.0467 129.046 33.105C129.046 32.1561 129.279 31.4023 129.744 30.8438C130.213 30.2852 130.842 30.0059 131.63 30.0059C132.367 30.0059 132.951 30.2493 133.381 30.7363C133.81 31.2197 134.025 31.8589 134.025 32.6538V33.2178H129.97C129.988 33.9089 130.162 34.4334 130.491 34.7915C130.824 35.1496 131.291 35.3286 131.893 35.3286C132.527 35.3286 133.153 35.1961 133.773 34.9312V35.7261C133.458 35.8621 133.159 35.9588 132.876 36.0161C132.596 36.077 132.258 36.1074 131.861 36.1074ZM131.619 30.7524C131.146 30.7524 130.768 30.9064 130.486 31.2144C130.206 31.5223 130.042 31.9484 129.991 32.4927H133.069C133.069 31.9305 132.944 31.5008 132.693 31.2036C132.442 30.9028 132.084 30.7524 131.619 30.7524ZM144.956 36H144.053L142.469 30.7417C142.394 30.509 142.31 30.2153 142.216 29.8608C142.123 29.5063 142.075 29.2933 142.071 29.2217C141.993 29.6943 141.867 30.2118 141.695 30.7739L140.159 36H139.257L137.168 28.1475H138.134L139.375 32.9976C139.547 33.6779 139.672 34.2938 139.751 34.8452C139.848 34.1899 139.991 33.549 140.181 32.9224L141.588 28.1475H142.555L144.032 32.9653C144.204 33.5203 144.349 34.147 144.467 34.8452C144.535 34.3368 144.664 33.7173 144.854 32.9868L146.089 28.1475H147.056L144.956 36ZM148.823 36H147.932V30.1133H148.823V36ZM147.856 28.5181C147.856 28.314 147.906 28.1654 148.007 28.0723C148.107 27.9756 148.232 27.9272 148.383 27.9272C148.526 27.9272 148.649 27.9756 148.753 28.0723C148.857 28.1689 148.909 28.3175 148.909 28.5181C148.909 28.7186 148.857 28.869 148.753 28.9692C148.649 29.0659 148.526 29.1143 148.383 29.1143C148.232 29.1143 148.107 29.0659 148.007 28.9692C147.906 28.869 147.856 28.7186 147.856 28.5181ZM152.395 35.3716C152.553 35.3716 152.705 35.3608 152.852 35.3394C152.998 35.3143 153.115 35.2892 153.201 35.2642V35.9463C153.104 35.9928 152.961 36.0304 152.771 36.0591C152.585 36.0913 152.417 36.1074 152.266 36.1074C151.128 36.1074 150.558 35.5076 150.558 34.3081V30.8062H149.715V30.3765L150.558 30.0059L150.934 28.749H151.45V30.1133H153.158V30.8062H151.45V34.2705C151.45 34.625 151.534 34.8971 151.702 35.0869C151.871 35.2767 152.101 35.3716 152.395 35.3716ZM158.191 36V32.1919C158.191 31.7121 158.082 31.354 157.863 31.1177C157.645 30.8813 157.303 30.7632 156.837 30.7632C156.218 30.7632 155.765 30.9315 155.478 31.2681C155.195 31.6047 155.054 32.1561 155.054 32.9224V36H154.162V27.6426H155.054V30.1724C155.054 30.4767 155.04 30.7292 155.011 30.9297H155.065C155.24 30.6468 155.489 30.4248 155.811 30.2637C156.137 30.099 156.508 30.0166 156.923 30.0166C157.643 30.0166 158.182 30.1885 158.54 30.5322C158.902 30.8724 159.082 31.4149 159.082 32.1597V36H158.191ZM165.888 36H164.975V28.9585H162.488V28.1475H168.375V28.9585H165.888V36ZM171.893 30.0059C172.154 30.0059 172.389 30.0273 172.597 30.0703L172.473 30.8975C172.23 30.8438 172.015 30.8169 171.829 30.8169C171.352 30.8169 170.944 31.0103 170.604 31.397C170.267 31.7837 170.099 32.2653 170.099 32.8418V36H169.208V30.1133H169.943L170.045 31.2036H170.088C170.307 30.8205 170.57 30.5251 170.878 30.3174C171.186 30.1097 171.524 30.0059 171.893 30.0059ZM174.316 30.1133V33.9321C174.316 34.4119 174.425 34.77 174.643 35.0063C174.862 35.2427 175.204 35.3608 175.669 35.3608C176.285 35.3608 176.734 35.1925 177.017 34.856C177.304 34.5194 177.447 33.9697 177.447 33.207V30.1133H178.339V36H177.603L177.474 35.2104H177.425C177.243 35.5005 176.989 35.7225 176.663 35.8765C176.341 36.0304 175.972 36.1074 175.556 36.1074C174.84 36.1074 174.303 35.9373 173.945 35.5972C173.591 35.257 173.413 34.7127 173.413 33.9644V30.1133H174.316ZM183.812 34.394C183.812 34.9419 183.608 35.3644 183.2 35.6616C182.791 35.9588 182.219 36.1074 181.481 36.1074C180.7 36.1074 180.092 35.9839 179.655 35.7368V34.9097C179.938 35.0529 180.24 35.1657 180.562 35.248C180.888 35.3304 181.202 35.3716 181.502 35.3716C181.968 35.3716 182.326 35.2982 182.577 35.1514C182.827 35.001 182.953 34.7736 182.953 34.4692C182.953 34.2401 182.852 34.0449 182.652 33.8838C182.455 33.7191 182.068 33.5257 181.492 33.3037C180.944 33.0996 180.553 32.9224 180.321 32.772C180.092 32.618 179.92 32.4443 179.805 32.251C179.694 32.0576 179.639 31.8267 179.639 31.5581C179.639 31.0783 179.834 30.7005 180.224 30.4248C180.614 30.1455 181.15 30.0059 181.83 30.0059C182.464 30.0059 183.083 30.1348 183.688 30.3926L183.372 31.1177C182.781 30.8742 182.245 30.7524 181.766 30.7524C181.343 30.7524 181.024 30.8187 180.809 30.9512C180.595 31.0837 180.487 31.2663 180.487 31.499C180.487 31.6566 180.527 31.7909 180.605 31.9019C180.688 32.0129 180.818 32.1185 180.997 32.2188C181.177 32.319 181.52 32.464 182.029 32.6538C182.727 32.908 183.198 33.1641 183.441 33.4219C183.688 33.6797 183.812 34.0037 183.812 34.394ZM186.949 35.3716C187.106 35.3716 187.259 35.3608 187.405 35.3394C187.552 35.3143 187.669 35.2892 187.755 35.2642V35.9463C187.658 35.9928 187.515 36.0304 187.325 36.0591C187.139 36.0913 186.97 36.1074 186.82 36.1074C185.681 36.1074 185.112 35.5076 185.112 34.3081V30.8062H184.269V30.3765L185.112 30.0059L185.488 28.749H186.004V30.1133H187.712V30.8062H186.004V34.2705C186.004 34.625 186.088 34.8971 186.256 35.0869C186.424 35.2767 186.655 35.3716 186.949 35.3716Z" fill="#929292"/>
</svg>
